# xmcd
#
# Track frame offsets:
#	182
#	13310
#	26582
#	38997
#	51947
#	67517
#	79100
#	90835
#	103550
#	116105
#	130990
#	146820
#	158642
#	173445
#
# Disc length: 2499 seconds
#
# Revision: 1
# Processed by: cddbd v1.5.2PL0 Copyright (c) Steve Scherf et al.
# Submitted via: audiograbber 1.83.01
#
DISCID=ac09c10e
DTITLE=Duo De Wico's - Al valt de hemel
DYEAR=1992
DGENRE=Hollands
TTITLE0=Duo De Wico's - Al valt de hemel naar beneden
TTITLE1=Duo De Wico's - Liefde is slechts een illusie
TTITLE2=Duo De Wico's - Adieu Cherie
TTITLE3=Duo De Wico's - Daar maak ik geen probleem meer van
TTITLE4=Duo De Wico's - Dans nog eenmaal in m'n armen
TTITLE5=Duo De Wico's - Je eerste liefde vergeet je niet
TTITLE6=Duo De Wico's - Anna-Annabella
TTITLE7=Duo De Wico's - Geen weg terug
TTITLE8=Duo De Wico's - Niemand had je ooit zo lief
TTITLE9=Duo De Wico's - Jonge meisjes willen altijd dansen
TTITLE10=Duo De Wico's - Al m'n liefdesdromen
TTITLE11=Duo De Wico's - Go Merrie go
TTITLE12=Duo De Wico's - Blonde roos uit Beverwijk
TTITLE13=Duo De Wico's - Liefde is alleen kleine zonnestraaltjes
EXTD=
EXTT0=
EXTT1=
EXTT2=
EXTT3=
EXTT4=
EXTT5=
EXTT6=
EXTT7=
EXTT8=
EXTT9=
EXTT10=
EXTT11=
EXTT12=
EXTT13=
PLAYORDER=
